<svg viewBox="0 0 40 41" fill="none" xmlns="http://www.w3.org/2000/svg"><path d="M25.2195 26.7202C24.2116 27.5122 23.0328 28.0688 21.7696 28.3416C20.1101 28.6999 18.3812 28.5518 16.8069 27.9166C15.2325 27.2813 13.885 26.1881 12.9388 24.7785C11.9927 23.3688 11.4915 21.7077 11.5 20.01H11.5V20.0024C11.5 18.4239 11.9396 16.8765 12.7695 15.5337C13.5994 14.1909 14.7868 13.1058 16.1987 12.3998C17.6106 11.6939 19.1912 11.395 20.7634 11.5368C22.3355 11.6785 23.8372 12.2553 25.1 13.2024L27.5 15.0024V12.0024V11.5024H28.5V23.0024C28.5 23.8746 28.7532 24.7207 29.2189 25.4424H27.2H27.18H25.163C25.2103 25.3975 25.2571 25.352 25.3033 25.3057C26.7098 23.8992 27.5 21.9916 27.5 20.0024C27.5 18.0133 26.7098 16.1057 25.3033 14.6991C23.8968 13.2926 21.9891 12.5024 20 12.5024C18.0109 12.5024 16.1032 13.2926 14.6967 14.6991C13.2902 16.1057 12.5 18.0133 12.5 20.0024C12.5 21.9916 13.2902 23.8992 14.6967 25.3057C16.1032 26.7123 18.0109 27.5024 20 27.5024C21.6977 27.5024 23.3361 26.9268 24.6542 25.8836L25.2195 26.7202ZM31.1512 28.2103C30.4205 27.9527 29.7569 27.5452 29.2004 27.0189L29.9107 26.2745C30.7448 27.062 31.8497 27.5024 33 27.5024C34.1935 27.5024 35.3381 27.0283 36.182 26.1844C37.0259 25.3405 37.5 24.1959 37.5 23.0024V20.0024V20.0014C37.4973 16.1942 36.2531 12.4918 33.9561 9.4556C31.6591 6.41943 28.4347 4.21513 24.7718 3.17702C21.1089 2.13891 17.2074 2.32362 13.6589 3.70313C10.1105 5.08265 7.10873 7.58171 5.10886 10.8213C3.109 14.0609 2.22015 17.8643 2.57711 21.6547C2.93407 25.4451 4.51737 29.0157 7.08689 31.8249C9.65641 34.6342 13.072 36.5289 16.8156 37.2217C20.0662 37.8233 23.4102 37.4901 26.4636 36.2765L26.9177 37.1797C23.6701 38.4891 20.1068 38.8537 16.6431 38.2146C12.6849 37.4843 9.07297 35.483 6.35502 32.5143C3.63708 29.5456 1.96145 25.7715 1.58229 21.7645C1.20313 17.7574 2.14113 13.736 4.25402 10.3103C6.3669 6.88447 9.53939 4.24122 13.2903 2.78142C17.0412 1.32161 21.1658 1.12491 25.0386 2.22114C28.9114 3.31737 32.3211 5.64672 34.7504 8.85588C37.1794 12.0647 38.4958 15.978 38.5 20.0024H38.48L38.48 23.0024L38.48 23.0069C38.4835 24.1858 38.1081 25.3346 37.4092 26.284C36.7103 27.2334 35.7248 27.9331 34.5981 28.2799C33.4713 28.6267 32.263 28.6023 31.1512 28.2103Z" strokeWidth="3"/></svg>
