<svg className="stroke-current h-4 w-4"  viewBox="0 0 40 36" fill="none" xmlns="http://www.w3.org/2000/svg"><path d="M9.5 20V18.5H8H4C3.33696 18.5 2.70107 18.2366 2.23223 17.7678L1.20371 18.7963L2.23223 17.7678C1.76339 17.2989 1.5 16.663 1.5 16V8C1.5 6.62843 2.62843 5.5 4 5.5H8H9.5V4V1.5H34.5V20C34.5 21.7239 33.8152 23.3772 32.5962 24.5962C31.3772 25.8152 29.7239 26.5 28 26.5H16C14.2761 26.5 12.6228 25.8152 11.4038 24.5962C10.1848 23.3772 9.5 21.7239 9.5 20ZM8 17.5H9.5V16V8V6.5H8H4H2.5V8V16V17.5H4H8ZM12.3541 34.5L6.3541 31.5H37.6459L31.6459 34.5H12.3541Z" stroke-width="3"/></svg>