<svg width="374" height="124" viewBox="0 0 374 124" fill="none" xmlns="http://www.w3.org/2000/svg">
<g clip-path="url(#clip0)">
<path d="M119.465 87.0954C119.016 87.0954 118.612 86.9335 118.253 86.6098C117.938 86.2397 117.781 85.8234 117.781 85.3609V40.3327C117.781 39.8238 117.938 39.4075 118.253 39.0838C118.567 38.7137 118.971 38.5288 119.465 38.5288H150.782C151.276 38.5288 151.681 38.7137 151.994 39.0838C152.354 39.4075 152.533 39.8238 152.533 40.3327V47.6871C152.533 48.1959 152.354 48.6122 151.994 48.9359C151.681 49.2596 151.276 49.4216 150.782 49.4216H130.173V59.0655H149.435C149.929 59.0655 150.334 59.2505 150.647 59.6206C151.007 59.9443 151.186 60.3606 151.186 60.8694V68.2238C151.186 68.7327 151.007 69.149 150.647 69.4727C150.334 69.7964 149.929 69.9583 149.435 69.9583H130.173V85.3609C130.173 85.8234 130.016 86.2397 129.702 86.6098C129.388 86.9335 128.984 87.0954 128.49 87.0954H119.465ZM178.813 87.7893C172.438 87.7893 167.409 86.1935 163.727 83.002C160.046 79.8104 158.093 75.1157 157.868 68.9176C157.824 67.6226 157.801 65.6336 157.801 62.9509C157.801 60.2682 157.824 58.2561 157.868 56.9147C158.047 50.8092 160 46.1145 163.727 42.8304C167.499 39.5001 172.527 37.835 178.813 37.835C185.054 37.835 190.038 39.5001 193.765 42.8304C197.536 46.1145 199.512 50.8092 199.692 56.9147C199.782 59.5974 199.826 61.6095 199.826 62.9509C199.826 64.3385 199.782 66.3274 199.692 68.9176C199.467 75.1157 197.513 79.8104 193.832 83.002C190.195 86.1935 185.189 87.7893 178.813 87.7893ZM178.813 77.3821C181.148 77.3821 183.012 76.6651 184.403 75.2313C185.795 73.7511 186.536 71.5079 186.626 68.5013C186.716 65.8187 186.761 63.899 186.761 62.7427C186.761 61.5864 186.716 59.7131 186.626 57.1229C186.536 54.1163 185.795 51.8961 184.403 50.4623C183.012 48.9821 181.148 48.2421 178.813 48.2421C176.433 48.2421 174.548 48.9821 173.156 50.4623C171.765 51.8961 171.024 54.1163 170.934 57.1229C170.889 58.4179 170.866 60.2912 170.866 62.7427C170.866 65.2404 170.889 67.1599 170.934 68.5013C171.024 71.5079 171.765 73.7511 173.156 75.2313C174.548 76.6651 176.433 77.3821 178.813 77.3821ZM209.11 87.0954C208.66 87.0954 208.256 86.9335 207.898 86.6098C207.583 86.2397 207.427 85.8234 207.427 85.3609V40.3327C207.427 39.8238 207.583 39.4075 207.898 39.0838C208.212 38.7137 208.616 38.5288 209.11 38.5288H227.631C233.558 38.5288 238.182 39.9164 241.505 42.6916C244.872 45.4669 246.556 49.3754 246.556 54.417C246.556 57.6547 245.815 60.407 244.334 62.6733C242.896 64.9397 240.899 66.6974 238.34 67.9463L247.432 84.8752C247.566 85.1528 247.634 85.4071 247.634 85.6384C247.634 86.0085 247.499 86.3554 247.23 86.6791C246.96 86.9567 246.624 87.0954 246.219 87.0954H236.723C235.421 87.0954 234.501 86.471 233.962 85.2222L226.554 70.1665H220.088V85.3609C220.088 85.8698 219.908 86.286 219.549 86.6098C219.234 86.9335 218.83 87.0954 218.337 87.0954H209.11ZM227.564 59.9675C229.494 59.9675 230.953 59.4818 231.942 58.5105C232.973 57.493 233.491 56.1053 233.491 54.3476C233.491 52.5899 232.973 51.1793 231.942 50.1154C230.953 49.0515 229.494 48.5196 227.564 48.5196H220.088V59.9675H227.564ZM256.005 87.0954C255.512 87.0954 255.085 86.9335 254.725 86.6098C254.412 86.286 254.254 85.8698 254.254 85.3609V40.3327C254.254 39.8238 254.412 39.4075 254.725 39.0838C255.085 38.7137 255.512 38.5288 256.005 38.5288H263.615C264.739 38.5288 265.547 39.0376 266.04 40.0552L277.624 61.4245L289.275 40.0552C289.77 39.0376 290.578 38.5288 291.7 38.5288H299.31C299.805 38.5288 300.209 38.7137 300.523 39.0838C300.882 39.4075 301.061 39.8238 301.061 40.3327V85.3609C301.061 85.8698 300.882 86.286 300.523 86.6098C300.209 86.9335 299.805 87.0954 299.31 87.0954H290.757C290.308 87.0954 289.904 86.9335 289.545 86.6098C289.231 86.2397 289.073 85.8234 289.073 85.3609V60.1062L281.8 73.8437C281.216 74.9076 280.431 75.4394 279.442 75.4394H275.806C274.909 75.4394 274.122 74.9076 273.448 73.8437L266.242 60.1062V85.3609C266.242 85.8698 266.063 86.286 265.703 86.6098C265.389 86.9335 264.985 87.0954 264.491 87.0954H256.005ZM311.909 87.0954C311.46 87.0954 311.056 86.9335 310.696 86.6098C310.383 86.2397 310.225 85.8234 310.225 85.3609V40.2633C310.225 39.7545 310.383 39.3382 310.696 39.0144C311.056 38.6907 311.46 38.5288 311.909 38.5288H321.54C322.034 38.5288 322.438 38.6907 322.752 39.0144C323.066 39.3382 323.223 39.7545 323.223 40.2633V85.3609C323.223 85.8234 323.066 86.2397 322.752 86.6098C322.438 86.9335 322.034 87.0954 321.54 87.0954H311.909ZM334.074 87.0954C333.624 87.0954 333.22 86.9335 332.861 86.6098C332.546 86.2397 332.39 85.8234 332.39 85.3609V40.3327C332.39 39.8238 332.546 39.4075 332.861 39.0838C333.175 38.7137 333.579 38.5288 334.074 38.5288H343.098C343.591 38.5288 343.995 38.7137 344.311 39.0838C344.624 39.4075 344.782 39.8238 344.782 40.3327V55.4577L356.703 39.9164C357.196 38.9913 358.071 38.5288 359.329 38.5288H369.634C369.992 38.5288 370.307 38.6907 370.577 39.0144C370.89 39.292 371.048 39.6157 371.048 39.9858C371.048 40.3559 370.958 40.6334 370.779 40.8183L355.086 61.7714L372.058 84.8059C372.237 84.9908 372.328 85.2684 372.328 85.6384C372.328 86.0085 372.17 86.3554 371.856 86.6791C371.587 86.9567 371.25 87.0954 370.846 87.0954H360.272C359.553 87.0954 358.97 86.9567 358.521 86.6791C358.071 86.3554 357.757 86.0316 357.578 85.7078L344.782 68.7789V85.3609C344.782 85.8234 344.624 86.2397 344.311 86.6098C343.995 86.9335 343.591 87.0954 343.098 87.0954H334.074Z" fill="#223043"/>
<path d="M55.6968 0L69.5879 8.2292L14.8833 40.637L0.99231 32.4077L55.6968 0Z" fill="#223043"/>
<path d="M70.1485 9.95691L15.7884 42.146L15.7865 58.4321L70.1467 26.243L70.1485 9.95691Z" fill="#223043"/>
<path d="M48.2883 41.7402L15.9024 60.9177L15.9006 77.2042L48.2865 58.0266L48.2883 41.7402Z" fill="#223043"/>
<path d="M35.8733 67.4871L15.8256 79.3587L15.8237 95.6455L35.8716 83.7739L35.8733 67.4871Z" fill="#223043"/>
<path d="M0.0053855 33.9781L13.9781 42.2518L13.9727 58.5417L0 50.2682L0.0053855 33.9781Z" fill="#223043"/>
<path d="M0.146865 52.6372L13.95 60.8104L13.9447 77.1004L0.141479 68.9273L0.146865 52.6372Z" fill="#223043"/>
<path d="M0.140384 71.1842L13.9482 79.3602L13.9425 96.7246L0.134644 88.5486L0.140384 71.1842Z" fill="#223043"/>
<path d="M30.901 124L17.01 115.771L71.0937 83.731L84.9846 91.9601L30.901 124Z" fill="#223043"/>
<path d="M15.9089 114.362L70.1875 82.2216L70.1892 65.9355L15.9107 98.0763L15.9089 114.362Z" fill="#223043"/>
<path d="M37.6869 82.6277L70.0727 63.4501L70.0746 47.1637L37.6886 66.3412L37.6869 82.6277Z" fill="#223043"/>
<path d="M50.1018 56.8803L70.1495 45.0086L70.1512 28.7219L50.1035 40.5936L50.1018 56.8803Z" fill="#223043"/>
<path d="M85.9716 90.4991L71.999 82.2256L72.0043 65.9355L85.977 74.209L85.9716 90.4991Z" fill="#223043"/>
<path d="M85.8396 71.7351L72.0364 63.5619L72.0417 47.272L85.8449 55.4451L85.8396 71.7351Z" fill="#223043"/>
<path d="M85.845 53.1882L72.0371 45.0122L72.0427 27.9598L85.8506 36.1357L85.845 53.1882Z" fill="#223043"/>
</g>
<defs>
<clipPath id="clip0">
<rect width="374" height="124" fill="white"/>
</clipPath>
</defs>
</svg>
