<svg className="h-4 w-4" fill="#000000" viewBox="0 0 40 40" fill="none" xmlns="http://www.w3.org/2000/svg"><path d="M20 0.494995C8.95 0.494995 0 9.44999 0 20.495C0 29.3333 5.73 36.8283 13.675 39.47C14.675 39.6583 15.0417 39.04 15.0417 38.5083C15.0417 38.0333 15.025 36.775 15.0167 35.1083C9.45333 36.315 8.28 32.425 8.28 32.425C7.37 30.1167 6.055 29.5 6.055 29.5C4.24333 28.26 6.195 28.285 6.195 28.285C8.20333 28.425 9.25833 30.345 9.25833 30.345C11.0417 33.4033 13.94 32.52 15.0833 32.0083C15.2633 30.715 15.7783 29.8333 16.35 29.3333C11.9083 28.8333 7.24 27.1133 7.24 19.45C7.24 17.2667 8.015 15.4833 9.29833 14.0833C9.07333 13.5783 8.39833 11.545 9.47333 8.79C9.47333 8.79 11.1483 8.25333 14.9733 10.84C16.5733 10.395 18.2733 10.175 19.9733 10.165C21.6733 10.175 23.3733 10.395 24.9733 10.84C28.7733 8.25333 30.4483 8.79 30.4483 8.79C31.5233 11.545 30.8483 13.5783 30.6483 14.0833C31.9233 15.4833 32.6983 17.2667 32.6983 19.45C32.6983 27.1333 28.0233 28.825 23.5733 29.3167C24.2733 29.9167 24.9233 31.1433 24.9233 33.0167C24.9233 35.6933 24.8983 37.8433 24.8983 38.4933C24.8983 39.0183 25.2483 39.6433 26.2733 39.4433C34.275 36.82 40 29.32 40 20.495C40 9.44999 31.045 0.494995 20 0.494995Z"/></svg>
