<svg width="374" height="163" viewBox="0 0 374 163" fill="none" xmlns="http://www.w3.org/2000/svg">
<path d="M134.61 81.3238C134.61 72.3512 123.443 63.8478 106.322 58.5747C110.273 41.0159 108.517 27.0462 100.779 22.5737C98.9957 21.5246 96.9104 21.0276 94.6331 21.0276V27.1842C95.8952 27.1842 96.9104 27.4327 97.761 27.902C101.493 30.0555 103.111 38.2551 101.849 48.8014C101.547 51.3966 101.054 54.1298 100.45 56.9182C95.0721 55.593 89.2004 54.5715 83.0269 53.9089C79.3228 48.8014 75.4815 44.1632 71.6127 40.1048C80.5575 31.7396 88.9535 27.1566 94.6605 27.1566V21C87.1151 21 77.2375 26.4112 67.2501 35.798C57.2628 26.4664 47.3851 21.1104 39.8397 21.1104V27.267C45.5194 27.267 53.9428 31.8224 62.8875 40.1324C59.0462 44.1908 55.2049 48.8014 51.5557 53.9089C45.3547 54.5715 39.483 55.593 34.1052 56.9458C33.4742 54.185 33.0077 51.507 32.6785 48.9394C31.3889 38.3931 32.9803 30.1935 36.6844 28.0125C37.5075 27.5155 38.5776 27.2947 39.8397 27.2947V21.138C37.535 21.138 35.4497 21.635 33.6388 22.6841C25.9287 27.1566 24.2002 41.0987 28.1787 58.6023C11.1123 63.9031 0 72.3788 0 81.3238C0 90.2964 11.1672 98.7998 28.2884 104.073C24.3374 121.632 26.0934 135.601 33.8308 140.074C35.6143 141.123 37.6996 141.62 40.0044 141.62C47.5498 141.62 57.4274 136.209 67.4148 126.822C77.4021 136.154 87.2797 141.51 94.8251 141.51C97.1299 141.51 99.2152 141.013 101.026 139.964C108.736 135.491 110.465 121.549 106.486 104.045C123.498 98.7721 134.61 90.2688 134.61 81.3238ZM98.8859 62.9092C97.8707 66.4706 96.6086 70.1425 95.1818 73.8144C94.0569 71.6057 92.8771 69.3971 91.5875 67.1884C90.3253 64.9798 88.9809 62.8263 87.6364 60.7281C91.5326 61.3079 95.2916 62.0257 98.8859 62.9092ZM86.3194 92.3118C84.1793 96.0389 81.9842 99.5728 79.7069 102.858C75.6187 103.217 71.4756 103.41 67.305 103.41C63.1619 103.41 59.0188 103.217 54.958 102.886C52.6806 99.6004 50.4582 96.0942 48.318 92.3947C46.2327 88.778 44.3395 85.1061 42.611 81.4066C44.3121 77.7071 46.2328 74.0076 48.2906 70.391C50.4307 66.6639 52.6258 63.13 54.9031 59.8447C58.9913 59.4858 63.1345 59.2925 67.305 59.2925C71.4481 59.2925 75.5912 59.4858 79.652 59.8171C81.9294 63.1024 84.1518 66.6087 86.292 70.3082C88.3773 73.9248 90.2705 77.5967 91.9991 81.2962C90.2705 84.9957 88.3773 88.6952 86.3194 92.3118ZM95.1818 88.7228C96.6635 92.4223 97.9256 96.1218 98.9683 99.7108C95.3739 100.594 91.5875 101.34 87.6639 101.919C89.0083 99.7937 90.3528 97.6126 91.6149 95.3763C92.8771 93.1677 94.0569 90.9314 95.1818 88.7228ZM67.3599 118.181C64.8082 115.53 62.2564 112.576 59.7322 109.346C62.2016 109.457 64.7258 109.539 67.2776 109.539C69.8567 109.539 72.4084 109.484 74.9053 109.346C72.4359 112.576 69.8842 115.53 67.3599 118.181ZM46.9461 101.919C43.05 101.34 39.291 100.622 35.6966 99.7384C36.7118 96.177 37.974 92.5051 39.4007 88.8332C40.5257 91.0419 41.7055 93.2505 42.9951 95.4592C44.2847 97.6678 45.6017 99.8213 46.9461 101.919ZM67.2227 44.4669C69.7744 47.1173 72.3261 50.0714 74.8504 53.3015C72.381 53.1911 69.8567 53.1083 67.305 53.1083C64.7258 53.1083 62.1741 53.1635 59.6773 53.3015C62.1467 50.0714 64.6984 47.1173 67.2227 44.4669ZM46.9187 60.7281C45.5742 62.8539 44.2298 65.035 42.9676 67.2713C41.7055 69.4799 40.5257 71.6886 39.4007 73.8972C37.9191 70.1977 36.6569 66.4982 35.6143 62.9092C39.2087 62.0533 42.9951 61.3079 46.9187 60.7281ZM22.0875 95.2935C12.3745 91.1247 6.0912 85.6583 6.0912 81.3238C6.0912 76.9893 12.3745 71.4953 22.0875 67.3541C24.4471 66.3326 27.0263 65.4215 29.6877 64.5657C31.2517 69.9769 33.3095 75.6089 35.8612 81.379C33.337 87.1215 31.3066 92.726 29.7701 98.1096C27.0537 97.2537 24.4746 96.315 22.0875 95.2935ZM36.849 134.746C33.1175 132.592 31.4986 124.393 32.7608 113.846C33.0626 111.251 33.5565 108.518 34.1601 105.729C39.5379 107.055 45.4096 108.076 51.5831 108.739C55.2872 113.846 59.1285 118.484 62.9973 122.543C54.0525 130.908 45.6566 135.491 39.9495 135.491C38.7148 135.463 37.6721 135.215 36.849 134.746ZM101.932 113.708C103.221 124.254 101.63 132.454 97.9256 134.635C97.1025 135.132 96.0324 135.353 94.7703 135.353C89.0906 135.353 80.6672 130.798 71.7225 122.488C75.5638 118.429 79.4051 113.819 83.0543 108.711C89.2553 108.048 95.127 107.027 100.505 105.674C101.136 108.463 101.63 111.141 101.932 113.708ZM112.495 95.2935C110.135 96.315 107.556 97.2261 104.895 98.082C103.331 92.6708 101.273 87.0387 98.7213 81.2686C101.246 75.5261 103.276 69.9216 104.813 64.538C107.529 65.3939 110.108 66.3326 112.523 67.3541C122.236 71.5229 128.519 76.9893 128.519 81.3238C128.491 85.6583 122.208 91.1523 112.495 95.2935Z" fill="#223043"/>
<path d="M67.2766 93.9407C74.2018 93.9407 79.8157 88.2919 79.8157 81.3237C79.8157 74.3556 74.2018 68.7068 67.2766 68.7068C60.3515 68.7068 54.7375 74.3556 54.7375 81.3237C54.7375 88.2919 60.3515 93.9407 67.2766 93.9407Z" fill="#223043"/>
<path d="M181.781 65.9375V78.3125H192.688C194.854 78.3125 196.479 78.0625 197.562 77.5625C199.479 76.6875 200.438 74.9583 200.438 72.375C200.438 69.5833 199.51 67.7083 197.656 66.75C196.615 66.2083 195.052 65.9375 192.969 65.9375H181.781ZM194.969 57.9375C198.198 58 200.677 58.3958 202.406 59.125C204.156 59.8542 205.635 60.9271 206.844 62.3438C207.844 63.5104 208.635 64.8021 209.219 66.2188C209.802 67.6354 210.094 69.25 210.094 71.0625C210.094 73.25 209.542 75.4062 208.438 77.5312C207.333 79.6354 205.51 81.125 202.969 82C205.094 82.8542 206.594 84.0729 207.469 85.6562C208.365 87.2188 208.812 89.6146 208.812 92.8438V95.9375C208.812 98.0417 208.896 99.4688 209.062 100.219C209.312 101.406 209.896 102.281 210.812 102.844V104H200.219C199.927 102.979 199.719 102.156 199.594 101.531C199.344 100.24 199.208 98.9167 199.188 97.5625L199.125 93.2812C199.083 90.3438 198.542 88.3854 197.5 87.4062C196.479 86.4271 194.552 85.9375 191.719 85.9375H181.781V104H172.375V57.9375H194.969ZM231.125 76.375C229.062 76.375 227.458 77.0208 226.312 78.3125C225.188 79.6042 224.479 81.3542 224.188 83.5625H238.031C237.885 81.2083 237.167 79.4271 235.875 78.2188C234.604 76.9896 233.021 76.375 231.125 76.375ZM231.125 69.0312C233.958 69.0312 236.51 69.5625 238.781 70.625C241.052 71.6875 242.927 73.3646 244.406 75.6562C245.74 77.6771 246.604 80.0208 247 82.6875C247.229 84.25 247.323 86.5 247.281 89.4375H223.969C224.094 92.8542 225.167 95.25 227.188 96.625C228.417 97.4792 229.896 97.9062 231.625 97.9062C233.458 97.9062 234.948 97.3854 236.094 96.3438C236.719 95.7812 237.271 95 237.75 94H246.844C246.615 96.0208 245.562 98.0729 243.688 100.156C240.771 103.469 236.688 105.125 231.438 105.125C227.104 105.125 223.281 103.729 219.969 100.938C216.656 98.1458 215 93.6042 215 87.3125C215 81.4167 216.49 76.8958 219.469 73.75C222.469 70.6042 226.354 69.0312 231.125 69.0312ZM272.094 87.4375C271.531 87.7917 270.958 88.0833 270.375 88.3125C269.812 88.5208 269.031 88.7188 268.031 88.9062L266.031 89.2812C264.156 89.6146 262.812 90.0208 262 90.5C260.625 91.3125 259.938 92.5729 259.938 94.2812C259.938 95.8021 260.354 96.9062 261.188 97.5938C262.042 98.2604 263.073 98.5938 264.281 98.5938C266.198 98.5938 267.958 98.0312 269.562 96.9062C271.188 95.7812 272.031 93.7292 272.094 90.75V87.4375ZM266.688 83.2812C268.333 83.0729 269.51 82.8125 270.219 82.5C271.49 81.9583 272.125 81.1146 272.125 79.9688C272.125 78.5729 271.635 77.6146 270.656 77.0938C269.698 76.5521 268.281 76.2812 266.406 76.2812C264.302 76.2812 262.812 76.8021 261.938 77.8438C261.312 78.6146 260.896 79.6562 260.688 80.9688H252.094C252.281 77.9896 253.115 75.5417 254.594 73.625C256.948 70.625 260.99 69.125 266.719 69.125C270.448 69.125 273.76 69.8646 276.656 71.3438C279.552 72.8229 281 75.6146 281 79.7188V95.3438C281 96.4271 281.021 97.7396 281.062 99.2812C281.125 100.448 281.302 101.24 281.594 101.656C281.885 102.073 282.323 102.417 282.906 102.688V104H273.219C272.948 103.312 272.76 102.667 272.656 102.062C272.552 101.458 272.469 100.771 272.406 100C271.177 101.333 269.76 102.469 268.156 103.406C266.24 104.51 264.073 105.062 261.656 105.062C258.573 105.062 256.021 104.188 254 102.438C252 100.667 251 98.1667 251 94.9375C251 90.75 252.615 87.7188 255.844 85.8438C257.615 84.8229 260.219 84.0938 263.656 83.6562L266.688 83.2812ZM309.281 82.1562C309.115 80.8854 308.688 79.7396 308 78.7188C307 77.3438 305.448 76.6562 303.344 76.6562C300.344 76.6562 298.292 78.1458 297.188 81.125C296.604 82.7083 296.312 84.8125 296.312 87.4375C296.312 89.9375 296.604 91.9479 297.188 93.4688C298.25 96.3021 300.25 97.7188 303.188 97.7188C305.271 97.7188 306.75 97.1562 307.625 96.0312C308.5 94.9062 309.031 93.4479 309.219 91.6562H318.312C318.104 94.3646 317.125 96.9271 315.375 99.3438C312.583 103.24 308.448 105.188 302.969 105.188C297.49 105.188 293.458 103.562 290.875 100.312C288.292 97.0625 287 92.8438 287 87.6562C287 81.8021 288.427 77.25 291.281 74C294.135 70.75 298.073 69.125 303.094 69.125C307.365 69.125 310.854 70.0833 313.562 72C316.292 73.9167 317.906 77.3021 318.406 82.1562H309.281ZM321.062 76.5938V70.25H325.812V60.75H334.625V70.25H340.156V76.5938H334.625V94.5938C334.625 95.9896 334.802 96.8646 335.156 97.2188C335.51 97.5521 336.594 97.7188 338.406 97.7188C338.677 97.7188 338.958 97.7188 339.25 97.7188C339.562 97.6979 339.865 97.6771 340.156 97.6562V104.312L335.938 104.469C331.729 104.615 328.854 103.885 327.312 102.281C326.312 101.26 325.812 99.6875 325.812 97.5625V76.5938H321.062Z" fill="#223043"/>
</svg>
