<svg width="374" height="88" viewBox="0 0 374 88" fill="none" xmlns="http://www.w3.org/2000/svg">
<path fill-rule="evenodd" clip-rule="evenodd" d="M43.8391 22C33.9754 22 27.8105 26.95 25.3446 36.85C29.0435 31.9 33.3589 30.0437 38.2908 31.2812C41.1047 31.9873 43.1159 34.0362 45.3421 36.3043C48.9687 39.9989 53.166 44.275 62.3336 44.275C72.1973 44.275 78.3622 39.325 80.8281 29.425C77.1292 34.375 72.8138 36.2313 67.882 34.9938C65.0681 34.2877 63.0568 32.2388 60.8306 29.9707C57.2041 26.2761 53.0068 22 43.8391 22ZM25.3446 44.275C15.4809 44.275 9.31603 49.225 6.8501 59.125C10.549 54.175 14.8644 52.3188 19.7963 53.5563C22.6102 54.2623 24.6214 56.3112 26.8476 58.5793C30.4742 62.2739 34.6714 66.55 43.8391 66.55C53.7028 66.55 59.8677 61.6 62.3336 51.7C58.6347 56.65 54.3193 58.5063 49.3875 57.2688C46.5736 56.5627 44.5623 54.5138 42.3361 52.2457C38.7096 48.5511 34.5123 44.275 25.3446 44.275Z" fill="#2A4365"/>
<path fill-rule="evenodd" clip-rule="evenodd" d="M117.811 40.7714H111.356V53.3114C111.356 56.6554 113.543 56.6032 117.811 56.3942V61.4624C109.17 62.5074 105.734 60.1039 105.734 53.3114V40.7714H100.944V35.3374H105.734V28.3194L111.356 26.6474V35.3374H117.811V40.7714ZM142.419 35.3374H148.041V61.4624H142.419V57.7004C140.44 60.4697 137.369 62.1417 133.308 62.1417C126.228 62.1417 120.346 56.1329 120.346 48.3999C120.346 40.6147 126.228 34.6582 133.308 34.6582C137.369 34.6582 140.44 36.3302 142.419 39.0472V35.3374ZM134.193 56.7599C138.879 56.7599 142.419 53.2592 142.419 48.3999C142.419 43.5407 138.879 40.0399 134.193 40.0399C129.508 40.0399 125.968 43.5407 125.968 48.3999C125.968 53.2592 129.508 56.7599 134.193 56.7599ZM157.411 31.4187C155.433 31.4187 153.819 29.7467 153.819 27.8134C153.819 25.8279 155.433 24.2082 157.411 24.2082C159.39 24.2082 161.004 25.8279 161.004 27.8134C161.004 29.7467 159.39 31.4187 157.411 31.4187ZM154.6 61.4624V35.3374H160.223V61.4624H154.6ZM166.73 61.4624V23.3199H172.352V61.4624H166.73ZM208.845 35.3374H214.78L206.607 61.4624H201.089L195.675 43.8542L190.208 61.4624H184.69L176.517 35.3374H182.452L187.501 53.3637L192.968 35.3374H198.33L203.744 53.3637L208.845 35.3374ZM221.756 31.4187C219.778 31.4187 218.164 29.7467 218.164 27.8134C218.164 25.8279 219.778 24.2082 221.756 24.2082C223.734 24.2082 225.348 25.8279 225.348 27.8134C225.348 29.7467 223.734 31.4187 221.756 31.4187ZM218.945 61.4624V35.3374H224.567V61.4624H218.945ZM244.766 34.6582C250.596 34.6582 254.761 38.6292 254.761 45.4217V61.4624H249.139V45.9964C249.139 42.0254 246.848 39.9354 243.308 39.9354C239.612 39.9354 236.697 42.1299 236.697 47.4594V61.4624H231.074V35.3374H236.697V38.6814C238.415 35.9644 241.226 34.6582 244.766 34.6582ZM281.415 24.8874H287.037V61.4624H281.415V57.7004C279.437 60.4697 276.365 62.1417 272.305 62.1417C265.225 62.1417 259.342 56.1329 259.342 48.3999C259.342 40.6147 265.225 34.6582 272.305 34.6582C276.365 34.6582 279.437 36.3302 281.415 39.0472V24.8874ZM273.19 56.7599C277.875 56.7599 281.415 53.2592 281.415 48.3999C281.415 43.5407 277.875 40.0399 273.19 40.0399C268.505 40.0399 264.965 43.5407 264.965 48.3999C264.965 53.2592 268.505 56.7599 273.19 56.7599ZM305.883 62.1417C298.022 62.1417 292.139 56.1329 292.139 48.3999C292.139 40.6147 298.022 34.6582 305.883 34.6582C310.984 34.6582 315.409 37.3229 317.492 41.3984L312.65 44.2199C311.505 41.7642 308.954 40.1967 305.831 40.1967C301.249 40.1967 297.762 43.6974 297.762 48.3999C297.762 53.1024 301.249 56.6032 305.831 56.6032C308.954 56.6032 311.505 54.9834 312.754 52.5799L317.596 55.3492C315.409 59.4769 310.984 62.1417 305.883 62.1417ZM326.862 42.5479C326.862 47.3027 340.866 44.4289 340.866 54.0952C340.866 59.3202 336.337 62.1417 330.715 62.1417C325.509 62.1417 321.76 59.7904 320.095 56.0284L324.936 53.2069C325.769 55.5582 327.851 56.9689 330.715 56.9689C333.213 56.9689 335.14 56.1329 335.14 54.0429C335.14 49.3927 321.136 52.0052 321.136 42.6524C321.136 37.7409 325.353 34.6582 330.663 34.6582C334.931 34.6582 338.471 36.6437 340.293 40.0922L335.556 42.7569C334.619 40.7192 332.797 39.7787 330.663 39.7787C328.632 39.7787 326.862 40.6669 326.862 42.5479ZM350.861 42.5479C350.861 47.3027 364.865 44.4289 364.865 54.0952C364.865 59.3202 360.336 62.1417 354.714 62.1417C349.508 62.1417 345.76 59.7904 344.094 56.0284L348.935 53.2069C349.768 55.5582 351.85 56.9689 354.714 56.9689C357.212 56.9689 359.139 56.1329 359.139 54.0429C359.139 49.3927 345.135 52.0052 345.135 42.6524C345.135 37.7409 349.352 34.6582 354.662 34.6582C358.93 34.6582 362.47 36.6437 364.292 40.0922L359.555 42.7569C358.618 40.7192 356.796 39.7787 354.662 39.7787C352.631 39.7787 350.861 40.6669 350.861 42.5479Z" fill="#2A4365"/>
</svg>
