<svg width="25" height="21" viewBox="0 0 25 21" fill="none" xmlns="http://www.w3.org/2000/svg"> <path d="M7.862 20.3138C17.296 20.3138 22.456 12.4978 22.456 5.7198C22.456 5.4978 22.456 5.2768 22.441 5.0568C23.4448 4.33071 24.3114 3.43168 25 2.4018C24.0639 2.8166 23.0708 3.08863 22.054 3.2088C23.1247 2.56778 23.9261 1.55957 24.309 0.3718C23.3022 0.969255 22.2006 1.39031 21.052 1.6168C20.2787 0.794485 19.2559 0.249968 18.1419 0.0675133C17.0279 -0.114942 15.8848 0.0748364 14.8895 0.607481C13.8943 1.14012 13.1023 1.98594 12.6362 3.01404C12.1701 4.04214 12.0558 5.1952 12.311 6.2948C10.2718 6.19257 8.2768 5.66263 6.45564 4.73939C4.63448 3.81615 3.02784 2.52024 1.74 0.9358C1.08409 2.06496 0.8832 3.40166 1.17823 4.67374C1.47326 5.94582 2.24202 7.05763 3.328 7.7828C2.51174 7.75861 1.71328 7.53841 1 7.1408C1 7.1618 1 7.1838 1 7.2058C1.00032 8.39002 1.41026 9.53767 2.16028 10.4541C2.9103 11.3705 3.95423 11.9993 5.115 12.2338C4.35987 12.4397 3.56758 12.4698 2.799 12.3218C3.12676 13.341 3.76486 14.2322 4.62407 14.8709C5.48328 15.5095 6.52061 15.8637 7.591 15.8838C5.77474 17.3112 3.53106 18.0861 1.221 18.0838C0.812904 18.083 0.405204 18.0583 0 18.0098C2.34564 19.5151 5.07491 20.3135 7.862 20.3098" fill="#1DA1F2"/></svg>
